<svg width="99" height="18" viewBox="0 0 99 18" fill="none" xmlns="http://www.w3.org/2000/svg">
<path d="M0.359625 17V0.68H11.4956V3.776H4.15163V7.208H10.0556V10.28H4.15163V13.88H11.4956V17H0.359625ZM19.9663 17.216C18.5423 17.216 17.3743 17.048 16.4623 16.712C15.5663 16.36 14.8543 15.832 14.3263 15.128C13.8143 14.424 13.4543 13.552 13.2463 12.512C13.0383 11.456 12.9343 10.232 12.9343 8.84C12.9343 7.352 13.0543 6.08 13.2943 5.024C13.5343 3.952 13.9263 3.08 14.4703 2.408C15.0303 1.72 15.7583 1.216 16.6543 0.896C17.5503 0.559999 18.6463 0.391999 19.9423 0.391999C20.5823 0.391999 21.2623 0.431999 21.9823 0.511999C22.7183 0.575999 23.4143 0.663999 24.0703 0.775999C24.7263 0.887999 25.2783 0.999999 25.7263 1.112L25.7023 4.04C25.2383 3.976 24.6783 3.92 24.0223 3.872C23.3823 3.808 22.7343 3.752 22.0783 3.704C21.4223 3.656 20.8303 3.632 20.3023 3.632C19.5343 3.632 18.9183 3.736 18.4543 3.944C17.9903 4.136 17.6383 4.44 17.3983 4.856C17.1583 5.272 16.9903 5.808 16.8943 6.464C16.8143 7.12 16.7743 7.912 16.7743 8.84C16.7743 10.024 16.8623 11 17.0383 11.768C17.2143 12.536 17.5423 13.112 18.0223 13.496C18.5183 13.864 19.2303 14.048 20.1583 14.048C20.3663 14.048 20.5903 14.04 20.8303 14.024C21.0863 14.008 21.3343 13.992 21.5743 13.976C21.8143 13.944 22.0223 13.92 22.1983 13.904V10.832H20.5183V8H25.7983V16.592C25.4143 16.64 24.9663 16.704 24.4543 16.784C23.9423 16.864 23.4143 16.936 22.8703 17C22.3263 17.064 21.7983 17.112 21.2863 17.144C20.7743 17.192 20.3343 17.216 19.9663 17.216ZM31.5673 17V11.024L26.6473 0.68H30.7273L33.4873 6.848L36.2713 0.68H40.3513L35.3593 11.024V17H31.5673Z" fill="#EBF1FA"/>
<path d="M52.8608 17.288C51.5808 17.288 50.5168 17.128 49.6688 16.808C48.8368 16.488 48.1728 15.992 47.6768 15.32C47.1968 14.632 46.8528 13.76 46.6448 12.704C46.4528 11.632 46.3568 10.344 46.3568 8.84C46.3568 7.336 46.4528 6.048 46.6448 4.976C46.8528 3.904 47.1968 3.032 47.6768 2.36C48.1728 1.688 48.8448 1.192 49.6928 0.871999C50.5568 0.551999 51.6528 0.391999 52.9808 0.391999C53.4928 0.391999 54.0368 0.423999 54.6128 0.487999C55.1888 0.535999 55.7488 0.607999 56.2928 0.704C56.8528 0.799999 57.3328 0.895999 57.7328 0.991999L57.6368 3.968C57.3168 3.92 56.9248 3.872 56.4608 3.824C55.9968 3.776 55.5168 3.736 55.0208 3.704C54.5408 3.656 54.0848 3.632 53.6528 3.632C52.9328 3.632 52.3488 3.72 51.9008 3.896C51.4528 4.072 51.1008 4.368 50.8448 4.784C50.6048 5.184 50.4368 5.712 50.3408 6.368C50.2608 7.024 50.2208 7.848 50.2208 8.84C50.2208 9.816 50.2608 10.64 50.3408 11.312C50.4368 11.968 50.6048 12.496 50.8448 12.896C51.1008 13.296 51.4528 13.584 51.9008 13.76C52.3488 13.936 52.9408 14.024 53.6768 14.024C54.3168 14.024 55.0128 13.992 55.7648 13.928C56.5328 13.864 57.1648 13.808 57.6608 13.76L57.7328 16.712C57.3648 16.792 56.9088 16.88 56.3648 16.976C55.8368 17.072 55.2608 17.144 54.6368 17.192C54.0288 17.256 53.4368 17.288 52.8608 17.288ZM58.5988 17L62.6308 0.68H68.9668L73.0228 17H69.2068L68.3908 14H63.1108L62.3428 17H58.5988ZM63.6628 11H67.9108L66.2548 3.704H65.3428L63.6628 11ZM74.5628 17V0.68H85.3628V3.824H78.3548V8.264H84.0188V11.432H78.3548V17H74.5628ZM87.1253 17V0.68H98.2613V3.776H90.9173V7.208H96.8213V10.28H90.9173V13.88H98.2613V17H87.1253Z" fill="#3773C9"/>
</svg>
