<svg width="24" height="29" viewBox="0 0 24 29" fill="none" xmlns="http://www.w3.org/2000/svg">
<path d="M20 12.5C20 17.493 14.461 22.693 12.601 24.299C12.245 24.5667 11.755 24.5667 11.399 24.299C9.539 22.693 4 17.493 4 12.5C4 8.08468 7.58468 4.5 12 4.5C16.4153 4.5 20 8.08468 20 12.5" stroke="#3773C9" stroke-width="2" stroke-linecap="round" stroke-linejoin="round"/>
<path d="M12 9.5C10.3443 9.5 9 10.8443 9 12.5C9 14.1557 10.3443 15.5 12 15.5C13.6557 15.5 15 14.1557 15 12.5C15 10.8443 13.6557 9.5 12 9.5" stroke="#3773C9" stroke-width="2" stroke-linecap="round" stroke-linejoin="round"/>
</svg>
