<svg width="16" height="16" viewBox="0 0 16 16" fill="none" xmlns="http://www.w3.org/2000/svg">
<path d="M9.22133 11.0453C9.50494 11.1756 9.84095 11.0916 10.03 10.8433L10.2667 10.5333C10.5185 10.1976 10.9137 10 11.3333 10H13.3333C14.0692 10 14.6667 10.5974 14.6667 11.3333V13.3333C14.6667 14.0692 14.0692 14.6667 13.3333 14.6667C6.71035 14.6667 1.33333 9.28965 1.33333 2.66667C1.33333 1.93029 1.93029 1.33333 2.66667 1.33333H4.66667C5.40255 1.33333 6 1.93078 6 2.66667V4.66667C6 5.08634 5.80241 5.48153 5.46667 5.73333L5.15467 5.96733C4.90232 6.16002 4.82087 6.50394 4.96 6.78933C5.87112 8.63991 7.36962 10.1365 9.22133 11.0453" stroke="#3773C9" stroke-width="1.33333" stroke-linecap="round" stroke-linejoin="round"/>
</svg>
