<svg width="49" height="48" viewBox="0 0 49 48" fill="none" xmlns="http://www.w3.org/2000/svg">
<path d="M23.524 6.532C23.6998 6.21267 24.0355 6.01431 24.4 6.01431C24.7646 6.01431 25.1002 6.21267 25.276 6.532L31.18 17.74C31.4651 18.2655 31.9703 18.6359 32.5572 18.7497C33.1441 18.8635 33.7512 18.7088 34.212 18.328L42.766 11C43.1029 10.726 43.5782 10.7007 43.9422 10.9375C44.3063 11.1743 44.4759 11.6189 44.362 12.038L38.694 32.53C38.4563 33.3916 37.6758 33.9909 36.782 33.998H12.02C11.1255 33.9918 10.3439 33.3923 10.106 32.53L4.44002 12.04C4.32616 11.6209 4.49578 11.1763 4.85983 10.9395C5.22387 10.7027 5.69912 10.728 6.03602 11.002L14.588 18.33C15.0489 18.7108 15.6559 18.8655 16.2428 18.7517C16.8297 18.6379 17.3349 18.2675 17.62 17.742" stroke="#FCC800" stroke-width="4" stroke-linecap="round" stroke-linejoin="round"/>
<path d="M10.4 42H38.4" stroke="#FCC800" stroke-width="4" stroke-linecap="round" stroke-linejoin="round"/>
</svg>
