<svg width="49" height="48" viewBox="0 0 49 48" fill="none" xmlns="http://www.w3.org/2000/svg">
<path d="M18.6 4H30.6C31.7038 4 32.6 4.89617 32.6 6V10C32.6 11.1038 31.7038 12 30.6 12H18.6C17.4962 12 16.6 11.1038 16.6 10V6C16.6 4.89617 17.4962 4 18.6 4" stroke="#7C86FF" stroke-width="4" stroke-linecap="round" stroke-linejoin="round"/>
<path d="M32.6 8H36.6C38.8077 8 40.6 9.79234 40.6 12V40C40.6 42.2077 38.8077 44 36.6 44H12.6C10.3923 44 8.60001 42.2077 8.60001 40V12C8.60001 9.79234 10.3923 8 12.6 8H16.6" stroke="#7C86FF" stroke-width="4" stroke-linecap="round" stroke-linejoin="round"/>
<path d="M18.6 28L22.6 32L30.6 24" stroke="#7C86FF" stroke-width="4" stroke-linecap="round" stroke-linejoin="round"/>
</svg>
